<svg xmlns="http://www.w3.org/2000/svg" width="22" height="28" viewBox="0 0 22 28"><path fill="#d9534f" d="M20.28 20.656q0 .625-.437 1.062l-2.125 2.125q-.438.438-1.062.438t-1.062-.437L11 19.25l-4.594 4.593q-.438.438-1.062.438t-1.062-.437l-2.125-2.125q-.438-.438-.438-1.062t.437-1.062L6.75 15l-4.593-4.594q-.438-.438-.438-1.062t.437-1.062l2.125-2.125q.438-.438 1.062-.438t1.062.437L11 10.75l4.594-4.593q.438-.438 1.062-.438t1.062.437l2.125 2.125q.438.438.438 1.062t-.437 1.062L15.25 15l4.593 4.594q.438.438.438 1.062z"/></svg>
