<svg xmlns="http://www.w3.org/2000/svg" style="display:none"><symbol id="lock" viewBox="0 0 174.239 174.239"><path d="M148.203 68.6h-22.75V38.334C125.453 17.224 108.226 0 87.12 0 65.962 0 48.787 17.225 48.787 38.333V68.6h-22.75c-2.738 0-4.93 2.24-4.93 4.93v95.78c0 2.69 2.19 4.93 4.93 4.93h122.167c2.688 0 4.928-2.24 4.928-4.93V73.53c0-2.69-2.24-4.93-4.93-4.93zm-51.475 59.54h-3.833v5.776h-11.55v-5.775h-3.833v-19.214h19.216v19.216zm8.96-59.54H68.552V38.334c0-10.255 8.315-18.57 18.57-18.57 10.205 0 18.57 8.315 18.57 18.57V68.6z"/></symbol><symbol id="shapes" viewBox="0 0 174.239 174.239"><path d="M146.537 1.047a3.6 3.6 0 0 0-5.077 0L89.658 52.85a3.603 3.603 0 0 1-5.077 0L32.78 1.046a3.6 3.6 0 0 0-5.077 0L1.047 27.702a3.6 3.6 0 0 0 0 5.077l51.802 51.8a3.604 3.604 0 0 1 0 5.077L1.045 141.46a3.6 3.6 0 0 0 0 5.077L27.7 173.192a3.6 3.6 0 0 0 5.078 0l51.8-51.802a3.602 3.602 0 0 1 5.078 0l51.8 51.8a3.6 3.6 0 0 0 5.078 0l26.655-26.654a3.6 3.6 0 0 0 0-5.077l-51.8-51.803a3.6 3.6 0 0 1 0-5.077l51.8-51.8a3.6 3.6 0 0 0 0-5.077L146.537 1.047z"/></symbol><symbol id="trash" viewBox="0 0 174.239 174.239"><path d="M138.76 64.462H36c-.646 0-1.244.1-1.84.348-2.092.747-3.635 2.738-3.635 5.078l-.1 14.488-.448 84.436c0 2.987 2.44 5.427 5.426 5.427H138.16c3.037 0 5.526-2.44 5.526-5.43l.498-98.923c.05-2.986-2.388-5.426-5.425-5.426zM54.57 89.007h11.45v60.69H54.57v-60.69zm26.784 0h11.45v60.69h-11.45v-60.69zm38.285 60.688h-11.45V89.007h11.45v60.688zm19.155-104.82c3.007 0 5.467-2.46 5.467-5.467v-14.74c0-3.007-2.46-5.467-5.467-5.467h-25.133c-3.007 0-5.467-2.46-5.467-5.465V5.467c0-3.007-2.46-5.467-5.467-5.467h-30.56c-3.007 0-5.476 2.46-5.487 5.467l-.03 8.268c-.01 3.007-2.48 5.467-5.486 5.467H36.03c-3.008 0-5.468 2.46-5.468 5.467v14.74c0 3.006 2.46 5.466 5.467 5.466h102.764z"/></symbol></svg>