<svg xmlns="http://www.w3.org/2000/svg" style="display:none"><symbol id="camera" viewBox="0 0 30 28"><path fill="#444" d="M15 10.5q1.86 0 3.18 1.32T19.5 15t-1.32 3.18T15 19.5t-3.18-1.32T10.5 15t1.32-3.18T15 10.5zM26 4q1.656 0 2.828 1.172T30 8v14q0 1.656-1.172 2.828T26 26H4q-1.656 0-2.828-1.172T0 22V8q0-1.656 1.172-2.828T4 4h3.5l.797-2.125q.297-.766 1.086-1.32T11 0h8q.828 0 1.617.555t1.086 1.32L22.5 4H26zM15 22q2.89 0 4.945-2.055T22 15t-2.055-4.945T15 8t-4.945 2.055T8 15t2.055 4.945T15 22z"/></symbol><symbol id="folder-open" viewBox="0 0 29 28"><path fill="#444" d="M29.36 14.875q0 .484-.485 1.03l-5.25 6.19q-.672.796-1.883 1.35t-2.242.556h-17q-.53 0-.945-.202t-.414-.672q0-.484.485-1.03l5.25-6.19q.672-.796 1.883-1.35T11 14h17q.53 0 .945.203t.414.672zM24 9.5V12H11q-1.47 0-3.078.742T5.36 14.61L.016 20.89q0-.063-.008-.195T0 20.5v-15q0-1.437 1.03-2.47T3.5 2h5q1.437 0 2.47 1.03T12 5.5V6h8.5q1.437 0 2.47 1.03T24 9.5z"/></symbol><symbol id="road" viewBox="0 0 30 28"><path fill="#444" d="M17.36 15.563V15.5l-.376-5q-.016-.203-.172-.352t-.36-.148h-2.905q-.203 0-.36.148t-.17.352l-.376 5v.063q-.015.187.126.313t.328.125h3.813q.187 0 .328-.124t.125-.313zm11.86 7.296q0 1.14-.72 1.14h-11q.203 0 .344-.148t.125-.352l-.314-4q-.016-.203-.172-.352t-.36-.148h-4.25q-.202 0-.358.148t-.172.352l-.313 4q-.015.203.126.352T12.5 24h-11q-.72 0-.72-1.14 0-.845.407-1.814L7.703 4.734q.125-.297.406-.516t.593-.22H14q-.203 0-.36.15t-.17.35l-.235 3q-.016.22.125.36t.344.14h2.594q.203 0 .344-.14t.125-.36l-.234-3q-.016-.202-.172-.35t-.358-.15H21.3q.312 0 .593.22t.406.516l6.515 16.312q.406.97.406 1.813z"/></symbol><symbol id="search" viewBox="0 0 26 28"><path fill="#444" d="M18 13q0-2.89-2.055-4.945T11 6 6.055 8.055 4 13t2.055 4.945T11 20t4.945-2.055T18 13zm8 13q0 .812-.594 1.406T24 28q-.844 0-1.406-.594l-5.36-5.344Q14.44 24 11.002 24q-2.233 0-4.272-.868t-3.516-2.344-2.344-3.516T0 13 .87 8.725 3.212 5.21t3.516-2.344T11 2t4.274.866T18.79 5.21t2.344 3.516T22 13q0 3.436-1.936 6.233l5.36 5.36q.577.577.577 1.405z"/></symbol></svg>