<svg xmlns="http://www.w3.org/2000/svg" width="64" height="15"><path d="M10.525 8.945q0 1.819-1.546 2.96-1.538 1.132-4.183 1.132-1.53 0-2.671-.264Q.992 12.5 0 12.086V9.135h.347q.984.785 2.2 1.207 1.223.422 2.348.422.29 0 .76-.05.472-.05.77-.165.363-.15.595-.372.24-.224.24-.662 0-.405-.348-.694-.339-.298-1-.455Q5.217 8.2 4.44 8.06q-.769-.149-1.447-.372Q1.44 7.183.753 6.324q-.679-.869-.679-2.15 0-1.72 1.538-2.803Q3.158.279 5.582.279q1.214 0 2.397.24 1.19.232 2.059.587v2.836h-.34q-.744-.595-1.827-.992-1.075-.405-2.199-.405-.397 0-.794.058-.388.05-.752.198-.323.124-.554.38-.232.249-.232.571 0 .488.372.753.373.256 1.406.47.678.141 1.298.274.629.132 1.348.363 1.414.463 2.083 1.266.678.793.678 2.067zM23.87.503l-4.49 12.311h-3.555L11.335.503h3.333l2.976 8.648L20.621.503zm12.659 11.608q-.827.323-2.191.645-1.364.314-2.72.314-3.142 0-4.92-1.703-1.778-1.711-1.778-4.721 0-2.87 1.795-4.622Q28.509.263 31.717.263q1.215 0 2.315.223 1.1.215 2.447.868V4.24h-.355q-.232-.174-.678-.488-.447-.322-.86-.546-.48-.264-1.124-.454-.637-.19-1.356-.19-.844 0-1.53.248t-1.232.76q-.521.496-.827 1.265-.298.76-.298 1.761 0 2.043 1.084 3.126 1.083 1.083 3.2 1.083.181 0 .396-.008.224-.008.405-.025V8.358H30.85V6.034h5.68zm6.924.703h-.972v-8.04h.972zm6.811-2.884q0 1.411-.724 2.228-.723.816-1.938.816-1.224 0-1.948-.816-.718-.817-.718-2.227 0-1.411.718-2.228.724-.821 1.948-.821 1.215 0 1.938.821.724.817.724 2.228zm-1.003 0q0-1.12-.44-1.663-.438-.548-1.219-.548-.79 0-1.23.548-.434.542-.434 1.664 0 1.085.44 1.648.439.558 1.224.558.775 0 1.215-.553.444-.558.444-1.653zm7.193 2.228q0 1.467-.666 2.155-.667.687-2.052.687-.46 0-.899-.067-.434-.062-.858-.181v-.992h.052q.238.093.754.227.517.14 1.034.14.496 0 .822-.12.325-.118.506-.33.18-.201.258-.486.078-.284.078-.635v-.527q-.44.351-.842.527-.398.17-1.018.17-1.034 0-1.644-.744-.604-.75-.604-2.108 0-.744.206-1.282.212-.542.574-.935.336-.367.816-.569.481-.206.956-.206.502 0 .838.103.34.098.718.305l.062-.248h.91zm-.971-.93V8.08q-.388-.176-.724-.249-.33-.077-.661-.077-.801 0-1.26.537-.46.538-.46 1.561 0 .972.34 1.473.341.501 1.132.501.424 0 .847-.16.43-.166.786-.44zm7.803-1.298q0 1.411-.723 2.228-.724.816-1.938.816-1.225 0-1.948-.816-.719-.817-.719-2.227 0-1.411.719-2.228.723-.821 1.948-.821 1.214 0 1.938.821.723.817.723 2.228zm-1.002 0q0-1.12-.44-1.663-.439-.548-1.22-.548-.79 0-1.23.548-.433.542-.433 1.664 0 1.085.439 1.648.44.558 1.225.558.775 0 1.214-.553.445-.558.445-1.653z"/></svg>